<?xml version="1.0" encoding="utf-8"?>
<!-- Generator: Adobe Illustrator 18.0.0, SVG Export Plug-In . SVG Version: 6.00 Build 0)  -->
<!DOCTYPE svg PUBLIC "-//W3C//DTD SVG 1.1//EN" "http://www.w3.org/Graphics/SVG/1.1/DTD/svg11.dtd">
<svg version="1.1" id="Layer_1" xmlns="http://www.w3.org/2000/svg" xmlns:xlink="http://www.w3.org/1999/xlink" x="0px" y="0px"
	 width="40px" height="40px" viewBox="0 0 40 40" enable-background="new 0 0 40 40" xml:space="preserve">
<g>
	<path fill="#D55248" d="M20,0c11.046,0,20,8.954,20,20c0,11.046-8.954,20-20,20C8.954,40,0,31.045,0,20S8.954,0,20,0z"/>
	<path fill="#35A2B2" d="M5.6,14.804l0.798-0.013L21.2,23.6l-0.006,10.002L5.6,24.545C5.6,24.545,5.6,14.804,5.6,14.804z"/>
	<path fill="#2E919F" d="M40,20c0-1.884-0.266-3.705-0.753-5.433L21.2,23.6l-0.006,10.001l18.24-8.879
		C39.801,23.207,40,21.627,40,20z"/>
	<path fill="#3BB7C9" d="M5.6,14.8L21.2,24l18.149-9.075c-1.379-5.271-4.855-9.69-9.482-12.32L5.6,14.8z"/>
	<g>
		<g>
			<path fill="#2E919F" d="M29.975,9.185c0.546-0.273,0.82-0.63,0.82-0.988H30.8V6.601h-5.6v1.583c-0.006,0.362,0.266,0.724,0.818,1
				C27.111,9.731,28.882,9.731,29.975,9.185z"/>
			<path fill="#2E919F" d="M32,11.001v1.583c-0.006,0.362,0.266,0.724,0.818,1c1.093,0.546,2.864,0.546,3.957,0
				c0.544-0.272,0.817-0.628,0.819-0.985H37.6v-1.599L32,11.001L32,11.001z"/>
			<path fill="#2E919F" d="M23.575,12.385c0.546-0.273,0.82-0.63,0.82-0.988H24.4V9.801h-5.6v1.583
				c-0.006,0.362,0.266,0.724,0.818,1C20.711,12.931,22.482,12.931,23.575,12.385z"/>
			<path fill="#2E919F" d="M26,15.384c-0.006,0.362,0.266,0.724,0.818,1c1.093,0.546,2.864,0.546,3.957,0
				c0.546-0.273,0.82-0.63,0.82-0.988H31.6v-1.596H26V15.384z"/>
			<path fill="#2E919F" d="M12.4,14.584c-0.006,0.362,0.266,0.724,0.818,1c1.093,0.546,2.864,0.546,3.957,0
				c0.546-0.273,0.82-0.63,0.82-0.988H18v-1.596h-5.6C12.4,13.001,12.4,14.584,12.4,14.584z"/>
			<path fill="#2E919F" d="M19.2,18.584c-0.006,0.362,0.266,0.724,0.818,1c1.093,0.546,2.864,0.546,3.957,0
				c0.546-0.273,0.82-0.63,0.82-0.988H24.8v-1.596h-5.6C19.2,17.001,19.2,18.584,19.2,18.584z"/>
			<path fill="#44D7EC" d="M29.975,7.589c1.092-0.546,1.092-1.43,0-1.976c-1.093-0.546-2.864-0.546-3.957,0
				c-1.092,0.546-1.092,1.431,0,1.976C27.111,8.135,28.882,8.135,29.975,7.589z"/>
			<path fill="#44D7EC" d="M36.775,10.013c-1.093-0.546-2.864-0.546-3.957,0c-1.092,0.546-1.092,1.43,0,1.976
				c1.093,0.546,2.864,0.546,3.957,0C37.867,11.443,37.867,10.559,36.775,10.013z"/>
			<path fill="#44D7EC" d="M23.575,10.789c1.092-0.546,1.092-1.43,0-1.976c-1.093-0.546-2.864-0.546-3.957,0
				c-1.092,0.546-1.092,1.43,0,1.976C20.711,11.335,22.482,11.335,23.575,10.789z"/>
			<path fill="#44D7EC" d="M30.775,12.813c-1.093-0.546-2.864-0.546-3.957,0c-1.092,0.546-1.092,1.431,0,1.976
				c1.093,0.546,2.864,0.546,3.957,0C31.867,14.243,31.867,13.359,30.775,12.813z"/>
			<path fill="#44D7EC" d="M17.175,12.013c-1.093-0.546-2.864-0.546-3.957,0c-1.092,0.546-1.092,1.43,0,1.976
				c1.093,0.546,2.864,0.546,3.957,0C18.267,13.443,18.267,12.559,17.175,12.013z"/>
			<path fill="#44D7EC" d="M23.975,16.013c-1.093-0.546-2.864-0.546-3.957,0c-1.092,0.546-1.092,1.43,0,1.976
				c1.093,0.546,2.864,0.546,3.957,0C25.067,17.443,25.067,16.558,23.975,16.013z"/>
		</g>
	</g>
</g>
<path fill="#2E919F" d="M34.642,6.382c-0.92-0.989-1.94-1.883-3.042-2.67v1.272c-0.006,0.362,0.266,0.724,0.818,1
	C33.027,6.289,33.846,6.417,34.642,6.382z"/>
</svg>
